<svg style="position: absolute; width: 0; height: 0;" width="0" height="0" version="1.1" xmlns="http://www.w3.org/2000/svg" xmlns:xlink="http://www.w3.org/1999/xlink"><defs><symbol id="x" viewBox="0 -128 1024 1024"><path d="M281 315 l438 0 l0 -97 l133 0 q30 0 49.5 9 q19.5 9 31.5 22.5 q12 13.5 17 29.5 q5 16 5 29 l1 89 l-912 0 l0 -76 q0 -26 9 -45.5 q9 -19.5 23 -32 q14 -12.5 32.5 -18.5 q18.5 -6 36.5 -6 l83 0 q26 0 53 -1 l0 97 ZM44 451 l0 167 q0 14 4 30 q4 16 13.5 29.5 q9.5 13.5 25.5 23 q16 9.5 41 10 q25 0.5 45 0.5 l63 0 l44 -128 l439 0 l45 128 l62 0 q15 1 29 0.5 q14 -0.5 31.5 -5 q17.5 -4.5 33 -16 q15.5 -11.5 26 -30 q10.5 -18.5 10.5 -47.5 l-1 -110 l0 -52 l-911 0 ZM163 514 q13 0 22 8.5 q9 8.5 9 21.5 q0 13 -9 21.5 q-9 8.5 -21.5 8.5 q-12.5 0 -21.5 -8.5 q-9 -8.5 -9 -21.5 q0 -13 9 -21.5 q9 -8.5 21 -8.5 ZM684 638 q6 20 11 38 q5 18 9.5 35.5 q4.5 17.5 9.5 30.5 q9 26 -2 38 q-11 12 -34 12 l-365 0 q-14 0 -21.5 -4 q-7.5 -4 -9.5 -10.5 q-2 -6.5 -1 -14.5 q1 -8 3 -15 l8 -25 q5 -18 10 -37 q6 -22 14 -48 l368 0 ZM663 263 l0 -227 q0 -38 -20.5 -52.5 q-20.5 -14.5 -51.5 -14.5 l-188 0 q-21 0 -34 6 q-13 6 -20.5 15.5 q-7.5 9.5 -10 21.5 q-2.5 12 -2.5 23 l0 228 l327 0 Z"></path></symbol><symbol id="xiala" viewBox="0 -128 1024 1024"><path d="M162 393.91 l-106 -104 q-10 -10 -23.5 -10 q-13.5 0 -23 9.5 q-9.5 9.5 -9.5 23 q0 13.5 9 23.5 l127 126 q10 9 25.5 10 q15.5 1 23.5 -9 l128 -127 q11 -10 11 -23.5 q0 -13.5 -10 -23 q-10 -9.5 -24 -9.5 q-14 0 -23 10 l-105 104 Z"></path></symbol><symbol id="yidiandiantubiao04" viewBox="0 -128 1024 1024"><path d="M314 695 l0 0 ZM710 695 l0 0 ZM554 -95 l0 0 ZM958 217 q17 16 17 41.5 q0 25.5 -16.5 41.5 q-16.5 16 -40.5 17 l0 346 q-1 38 -25.5 62 q-24.5 24 -61.5 25 l-181 0 q-24 0 -40.5 -16.5 q-16.5 -16.5 -16.5 -40.5 l0 -159 q-1 -35 -24 -57.5 q-23 -22.5 -57 -22.5 q-34 0 -57 22.5 q-23 22.5 -24 57.5 l0 159 q0 24 -16.5 40.5 q-16.5 16.5 -40.5 16.5 l-181 0 q-37 -1 -61.5 -25 q-24.5 -24 -25.5 -62 l0 -348 q-24 -1 -40.5 -17 q-16.5 -16 -16.5 -41.5 q0 -25.5 19 -41.5 l325 -317 q24 -22 54.5 -34 q30.5 -12 65 -12 q34.5 0 65.5 13 q31 13 55 35 l325 317 l0 0 ZM888 257 q10 0 11 -10 q-1 -6 -5 -9 l-301 -295 q-33 -33 -81 -33 q-48 0 -81 33 l0 0 q-79 76 -186 180 l-118 115 q-3 3 -4 9 q1 10 11 10 l0 0 l0 0 q13 1 21 9 q8 8 9 21 l0 361 q0 20 13.5 33 q13.5 13 32.5 14 l147 0 q7 0 12 -4.5 q5 -4.5 5 -12.5 l0 -142 q1 -59 40 -98 q39 -39 98 -40 q59 1 98 40 q39 39 40 98 l0 142 q0 7 4.5 12 q4.5 5 12.5 5 l145 0 q19 -1 32.5 -14 q13.5 -13 13.5 -33 l0 -361 q1 -13 9 -21 q8 -8 21 -9 l0 0 q0 0 0 0 l0 0 l0 0 Z"></path></symbol><symbol id="xiangzuojiantou" viewBox="0 -128 1024 1024"><path d="M343 363 l325 -316 l40 38 l-285 278 l285 277 l-40 38 l-325 -315 ZM668 678 l0 0 Z"></path></symbol><symbol id="iconset0480" viewBox="0 -128 1024 1024"><path d="M555 518 q37 15 60.5 47.5 q23.5 32.5 24.5 74.5 q-1 54 -37.5 90.5 q-36.5 36.5 -90.5 37.5 q-54 -1 -90.5 -37.5 q-36.5 -36.5 -37.5 -90.5 q1 -44 24.5 -76 q23.5 -32 60.5 -46 l0 -262 q1 -18 13 -30 q12 -12 30 -12 q18 0 30 12 q12 12 13 30 l0 262 ZM640 469 q39 30 62 74 q23 44 23 97 q-2 90 -62.5 150.5 q-60.5 60.5 -150.5 62.5 q-90 -2 -150.5 -62.5 q-60.5 -60.5 -62.5 -150.5 q0 -53 23 -97 q23 -44 62 -74 l0 -426 q1 -55 37.5 -91 q36.5 -36 90.5 -37 q54 1 90.5 37 q36.5 36 37.5 91 l0 426 ZM512 811 q72 -2 120.5 -50.5 q48.5 -48.5 50.5 -120.5 q-1 -47 -24 -85.5 q-23 -38.5 -62 -61.5 l0 -450 q-1 -36 -25 -60.5 q-24 -24.5 -60 -24.5 q-36 0 -60 24.5 q-24 24.5 -25 60.5 l0 450 q-39 23 -62 61 q-23 38 -24 86 q2 72 50.5 120.5 q48.5 48.5 120.5 50.5 Z"></path></symbol><symbol id="xiala1" viewBox="0 -128 1024 1024"><path d="M513 546 q12 0 21 -9 l260 -265 q9 -9 9 -21 q0 -12 -9 -21 q-9 -9 -21 -9 q-12 0 -22 9 l-238 243 l-239 -243 q-9 -9 -21 -9 q-12 0 -21 9 q-9 9 -9.5 21 q-0.5 12 8.5 21 l260 265 q9 9 22 9 Z"></path></symbol><symbol id="yuandianda" viewBox="0 -128 1024 1024"><path d="M480 416 l0 0 ZM64 416 q4 177 121.5 294.5 q117.5 117.5 294.5 121.5 q177 -4 294.5 -121.5 q117.5 -117.5 121.5 -294.5 q-4 -177 -121.5 -294.5 q-117.5 -117.5 -294.5 -121.5 q-177 4 -294.5 121.5 q-117.5 117.5 -121.5 294.5 Z"></path></symbol><symbol id="yuandianxiao" viewBox="0 -128 1024 1024"><path d="M480 416 l0 0 ZM320 416 q2 68 47 113 q45 45 113 47 q68 -2 113 -47 q45 -45 47 -113 q-2 -68 -47 -113 q-45 -45 -113 -47 q-68 2 -113 47 q-45 45 -47 113 Z"></path></symbol><symbol id="yuandianzhong" viewBox="0 -128 1024 1024"><path d="M480 416 l0 0 ZM192 416 q3 122 84.5 203.5 q81.5 81.5 203.5 84.5 q122 -3 203.5 -84.5 q81.5 -81.5 84.5 -203.5 q-3 -122 -84.5 -203.5 q-81.5 -81.5 -203.5 -84.5 q-122 3 -203.5 84.5 q-81.5 81.5 -84.5 203.5 Z"></path></symbol><symbol id="youjiantou" viewBox="0 -128 1024 1024"><path d="M373 64 q-14 0 -24.5 10 q-10.5 10 -10.5 23 q0 13 10 23 l274 264 l-274 264 q-10 10 -10 23 q0 13 10.5 23 q10.5 10 24 10 q13.5 0 24.5 -9 l297 -288 q10 -10 10 -23 q0 -13 -10 -23 l-297 -288 q-11 -9 -24 -9 Z"></path></symbol><symbol id="dingwei" viewBox="0 -128 1024 1024"><path d="M513 329 q48 -1 81 -34 q33 -33 34 -82 q-1 -50 -34 -82.5 q-33 -32.5 -81 -34.5 q-49 2 -81.5 34.5 q-32.5 32.5 -34.5 82.5 q2 49 34.5 82 q32.5 33 81.5 34 ZM513 128 q35 1 58.5 25 q23.5 24 23.5 60 q0 36 -23.5 59.5 q-23.5 23.5 -59 23.5 q-35.5 0 -59 -23.5 q-23.5 -23.5 -23.5 -59.5 q0 -36 23.5 -60 q23.5 -24 59.5 -25 ZM524 722 q23 -21 133 -182.5 q110 -161.5 124 -317.5 q-3 -119 -79 -198.5 q-76 -79.5 -189 -82.5 q-115 3 -190.5 82.5 q-75.5 79.5 -78.5 198.5 q15 156 124 317.5 q109 161.5 132 182.5 l12 15 l12 -15 ZM513 -27 q100 3 167 73 q67 70 70 176 q-10 127 -100 268.5 q-90 141.5 -138 196.5 q-47 -55 -136.5 -196.5 q-89.5 -141.5 -100.5 -268.5 q3 -106 70 -176 q67 -70 168 -73 ZM800 527 l79 300 l-728 0 l79 -300 l79 0 l0 31 l-48 0 l-63 237 l634 0 l-64 -237 l-63 0 l0 -31 l95 0 Z"></path></symbol><symbol id="ego-caidan" viewBox="0 -128 1024 1024"><path d="M80 645 l864 0 l0 -86 l-864 0 l0 86 ZM80 427 l864 0 l0 -86 l-864 0 l0 86 ZM80 209 l864 0 l0 -86 l-864 0 l0 86 Z"></path></symbol><symbol id="wendangzhongxin" viewBox="0 -128 1024 1024"><path d="M848 56 q27 1 45 19 q18 18 19 45 l0 649 q-1 27 -19 45 q-18 18 -45 19 l-567 0 q-27 -1 -45 -19 q-18 -18 -18 -45 l0 -58 l-71 0 q-27 -1 -45 -19 q-18 -18 -19 -44 l0 -650 q1 -27 19 -45 q18 -18 45 -18 l567 0 q27 0 45 18 q18 18 18 45 l0 58 l71 0 ZM218 655 l0 -535 q0 -27 18 -45 q18 -18 45 -19 l440 0 l0 -58 q0 -7 -7 -7 l-567 0 q-7 0 -8 7 l0 650 q1 6 8 7 l71 0 ZM856 120 q-1 -7 -8 -8 l-567 0 q-7 1 -7 8 l0 649 q0 7 7 8 l567 0 q7 -1 8 -8 l0 -649 ZM573 549 q12 0 20 8 q8 8 8 20 q0 12 -8 19.5 q-8 7.5 -20 8.5 l-160 0 q-12 -1 -20 -8.5 q-8 -7.5 -8 -19.5 q0 -12 8 -20 q8 -8 20 -8 l160 0 ZM719 397 q12 0 20 8 q8 8 8 20 q0 12 -8 20 q-8 8 -20 8 l-306 0 q-12 0 -20 -8 q-8 -8 -8 -20 q0 -12 8 -20 q8 -8 20 -8 l306 0 ZM719 251 q12 0 20 8 q8 8 8 20 q0 12 -8 20 q-8 8 -20 8 l-306 0 q-12 0 -20 -8 q-8 -8 -8 -20 q0 -12 8 -20 q8 -8 20 -8 l306 0 Z"></path></symbol><symbol id="xiala1-xiangyou" viewBox="0 -128 1024 1024"><path d="M667 411 q11 -11 11 -26 q0 -15 -11 -26 l-258 -258 q-11 -11 -26 -11 q-15 0 -26 11 q-11 11 -11 25.5 q0 14.5 11 26.5 l232 232 l-232 232 q-11 12 -11 26.5 q0 14.5 11 25 q11 10.5 26 10.5 q15 0 26 -10 l258 -258 Z"></path></symbol><symbol id="plus-select-down" viewBox="0 -128 1024 1024"><path d="M763 260 l-251 252 l-252 -252 l503 0 ZM260 260 l0 0 Z"></path></symbol><symbol id="youjiantou1" viewBox="0 -128 1024 1024"><path d="M385 663.89 q10 1 19 -8 l231 -231 q16 -16 16 -38 q0 -22 -16 -39 l-232 -232 q-8 -8 -18 -8 q-10 0 -17.5 8 q-7.5 8 -7.5 18 q0 10 7 18 l231 233 q3 3 0 6 l-231 231 q-7 7 -7 17 q0 10 7.5 18 q7.5 8 17.5 7 Z"></path></symbol><symbol id="lingdang-xianxing" viewBox="0 -128 1024 1024"><path d="M463 97 q-78 20 -126 81 q-48 61 -50 140 l0 254 l-43 44 l536 0 l-43 -44 l0 -254 q-2 -79 -50.5 -140 q-48.5 -61 -125.5 -81 l-49 -12 l-49 12 ZM512 -63 q7 0 16 2 q23 5 35.5 23.5 q12.5 18.5 12.5 43.5 l0 29 q98 24 160.5 101 q62.5 77 64.5 182 l0 229 l87 89 l0 45 l-752 0 l0 -45 l87 -89 l0 -229 q2 -105 64.5 -181.5 q62.5 -76.5 160.5 -101.5 l0 -30 q1 -29 18.5 -48 q17.5 -19 45.5 -20 ZM600 745 q-1 38 -25.5 62.5 q-24.5 24.5 -62.5 24.5 q-38 0 -62.5 -24.5 q-24.5 -24.5 -25.5 -62.5 l176 0 Z"></path></symbol><symbol id="zuojiantou" viewBox="0 -128 1024 1024"><path d="M623 663 q10 0 18 -8 q8 -8 8 -18 q0 -10 -8 -18 l-231 -231 q-2 -2 -2 -3.5 q0 -1.5 2 -2.5 l231 -232 q8 -7 8 -17 q0 -10 -7.5 -18 q-7.5 -8 -17.5 -8 q-10 0 -18 8 l-232 232 q-16 16 -16 39 q0 23 16 39 l231 231 q8 7 18 7 Z"></path></symbol><symbol id="right" viewBox="0 -128 1024 1024"><path d="M390 646 l-252 -253 l44 -45 l231 231 l451 -451 l45 44 l-474 474 l-45 0 Z"></path></symbol><symbol id="tubiao-" viewBox="0 -128 1024 1024"><path d="M512 560 l48 -48 l-304 -304 l-48 48 l304 304 ZM512 560 l304 -304 l-48 -48 l-304 304 l48 48 Z"></path></symbol><symbol id="tongji" viewBox="0 -128 1024 1024"><path d="M932 720 q12 0 20 8 q8 8 8 20 q0 12 -8 20 q-8 8 -20 8 l-812 0 q-24 -1 -39.5 -16.5 q-15.5 -15.5 -16.5 -39.5 l0 -700 q0 -12 8 -20 q8 -8 20 -8 q12 0 20 8 q8 8 8 20 l0 700 l112 0 l0 -224 q1 -24 16.5 -39.5 q15.5 -15.5 39.5 -16.5 l112 0 l0 -336 q1 -24 16.5 -39.5 q15.5 -15.5 39.5 -16.5 l112 0 q24 1 39.5 16.5 q15.5 15.5 16.5 39.5 l0 112 l112 0 q24 1 39.5 16.5 q15.5 15.5 16.5 39.5 l0 448 l140 0 ZM400 720 l0 -224 l-112 0 l0 224 l112 0 ZM568 720 l0 -616 l-112 0 l0 616 l112 0 ZM736 720 l0 -448 l-112 0 l0 448 l112 0 Z"></path></symbol><symbol id="daqiyali" viewBox="0 -128 1024 1024"><path d="M470 481 q15 0 25 -10.5 q10 -10.5 10 -24.5 l0 -321 q0 -15 -10 -25 q-10 -10 -25 -10 q-15 0 -24.5 10 q-9.5 10 -10.5 25 l0 321 q1 15 10.5 24.5 q9.5 9.5 24.5 10.5 ZM611 559 q14 0 24.5 -10.5 q10.5 -10.5 10.5 -24.5 l0 -331 q-1 -15 -10.5 -24.5 q-9.5 -9.5 -24.5 -9.5 q-15 0 -25 9.5 q-10 9.5 -10 24.5 l0 331 q0 14 10 24.5 q10 10.5 25 10.5 ZM751 480 q15 0 25 -10 q10 -10 10 -25 l0 -320 q0 -20 -17.5 -30 q-17.5 -10 -34.5 0 q-17 10 -18 30 l0 320 q0 15 10 25 q10 10 25 10 ZM841 570 q53 -2 88.5 -37 q35.5 -35 36.5 -88 q0 -15 -10 -25 q-10 -10 -25 -10 q-15 0 -25 10 q-10 10 -10 25 q0 15 -7 27.5 q-7 12.5 -20 20 q-13 7.5 -27.5 7.5 q-14.5 0 -27.5 -7.5 q-13 -7.5 -20.5 -20 q-7.5 -12.5 -7.5 -27.5 q0 -15 -10 -25 q-10 -10 -25 -10 q-15 0 -24.5 10 q-9.5 10 -10.5 25 q2 53 37 88 q35 35 88 37 ZM381 570 q53 -2 88 -37 q35 -35 36 -88 q0 -15 -10 -25 q-10 -10 -25 -10 q-15 0 -24.5 10 q-9.5 10 -10 25 q-0.5 15 -7.5 27.5 q-7 12.5 -20 20 q-13 7.5 -27.5 7.5 q-14.5 0 -27.5 -7.5 q-13 -7.5 -20 -20 q-7 -12.5 -7.5 -27.5 q-0.5 -15 -10 -25 q-9.5 -10 -24.5 -10 q-15 0 -25 10 q-10 10 -10 25 q1 53 36 88 q35 35 89 37 ZM962 700 q15 0 24.5 -10 q9.5 -10 9.5 -25 q0 -15 -9.5 -24.5 q-9.5 -9.5 -24.5 -10.5 l-704 0 q-15 1 -25 10.5 q-10 9.5 -10 24.5 q0 15 10 25 q10 10 25 10 l704 0 Z"></path></symbol><symbol id="shangbao" viewBox="0 -128 1024 1024"><path d="M979 294 q21 0 34.5 16.5 q13.5 16.5 14.5 41.5 l0 508 q0 16 -10 26 q-10 10 -24 10 l-956 0 q-14 0 -24 -11 q-10 -11 -10 -25 l0 -508 q1 -24 14 -40.5 q13 -16.5 33.5 -16.5 q20.5 0 34 16 q13.5 16 13.5 41 l0 434 l833 0 l0 -432 q1 -24 14 -41 q13 -17 33 -19 ZM175 257 q-12 0 -21.5 -9 q-9.5 -9 -9.5 -21.5 q0 -12.5 9 -22.5 l324 -323 q9 -9 21.5 -9 q12.5 0 22.5 9 l337 323 q9 9 9 21.5 q0 12.5 -9 22 q-9 9.5 -21.5 9.5 q-12.5 0 -22.5 -9 l-285 -273 l0 673 q0 14 -9 22.5 q-9 8.5 -22.5 8.5 q-13.5 0 -22 -9 q-8.5 -9 -9.5 -22 l0 -669 l-269 269 q-10 9 -22 9 Z"></path></symbol><symbol id="xiala-yuan" viewBox="0 -128 1024 1024"><path d="M512 -35 q-178 5 -296 123 q-118 118 -123 296 q5 178 123 296 q118 118 296 123 q178 -5 296 -123 q118 -118 123 -296 q-5 -178 -123 -296 q-118 -118 -296 -123 ZM512 873 q-208 -6 -345.5 -143.5 q-137.5 -137.5 -143.5 -345.5 q6 -208 143.5 -345.5 q137.5 -137.5 345.5 -143.5 q208 6 345.5 143.5 q137.5 137.5 143.5 345.5 q-6 208 -143.5 345.5 q-137.5 137.5 -345.5 143.5 ZM300 338 q-7 -8 -8.5 -18 q-1.5 -10 2.5 -19.5 q4 -9.5 12.5 -15.5 q8.5 -6 19.5 -6 q15 0 25 11 l152 161 l171 -162 q11 -10 25 -9.5 q14 0.5 24 11 q10 10.5 10 24.5 q0 14 -11 25 l-196 186 q-11 9 -25 9 q-14 0 -24 -11 l-177 -186 Z"></path></symbol><symbol id="xiala2" viewBox="0 -128 1024 1024"><path d="M815 222 q8 -13 1.5 -26.5 q-6.5 -13.5 -22.5 -14.5 l-564 0 q-16 1 -23 15 q-7 14 2 26 l262 347 q16 20 41 20 q25 0 41 -20 l262 -347 Z"></path></symbol><symbol id="baojingxiaoxi" viewBox="0 -128 1024 1024"><path d="M512 -36 q-12 0 -20 8.5 q-8 8.5 -9 20.5 l0 116 q0 12 8.5 20 q8.5 8 20.5 8 q12 0 20.5 -8 q8.5 -8 8.5 -20 l0 -116 q0 -12 -8.5 -20.5 q-8.5 -8.5 -20.5 -8.5 ZM302 474 q2 -89 61.5 -148.5 q59.5 -59.5 148.5 -61.5 q89 2 148.5 61.5 q59.5 59.5 61.5 148.5 l0 270 l-420 0 l0 -270 ZM782 474 q-4 -113 -80 -188 q-76 -75 -190 -78 q-113 3 -189 78 q-76 75 -81 188 l0 270 l-150 0 q-13 0 -21.5 8.5 q-8.5 8.5 -8.5 21.5 q0 13 8.5 21.5 q8.5 8.5 21.5 8.5 l840 0 q13 -1 21 -9.5 q8 -8.5 8 -20.5 q0 -12 -8 -20.5 q-8 -8.5 -21 -9.5 l-150 0 l0 -270 ZM779 42 q-11 -6 -22 -3.5 q-11 2.5 -18 12.5 l-64 97 q-6 10 -3.5 21.5 q2.5 11.5 12.5 18 q10 6.5 21.5 4.5 q11.5 -2 18.5 -12 l63 -98 q6 -10 4 -21.5 q-2 -11.5 -12 -18.5 ZM959 251 q-5 -11 -16 -15 q-11 -4 -22 1 l-105 49 q-11 6 -14.5 16.5 q-3.5 10.5 1.5 21.5 q5 11 15.5 15 q10.5 4 22.5 -1 l104 -49 q11 -5 15 -16 q4 -11 -1 -22 ZM65 251 q-5 11 -1 22 q4 11 15 16 l105 49 q15 7 28.5 -2.5 q13.5 -9.5 12 -26 q-1.5 -16.5 -16.5 -23.5 l-105 -49 q-11 -5 -22 -1 q-11 4 -16 15 ZM246 42 q-10 7 -12.5 18.5 q-2.5 11.5 3.5 21.5 l63 97 q10 14 26.5 13.5 q16.5 -0.5 24 -15.5 q7.5 -15 -1.5 -29 l-63 -97 q-7 -10 -18.5 -12.5 q-11.5 -2.5 -21.5 3.5 l0 0 ZM246 42 l0 0 Z"></path></symbol><symbol id="shuidi" viewBox="0 -128 1024 1024"><path d="M660 291 q30 31 46 69.5 q16 38.5 16 79.5 q0 41 -16 79.5 q-16 38.5 -46 69 q-30 30.5 -68.5 46 q-38.5 15.5 -79.5 15.5 q-41 0 -79.5 -15.5 q-38.5 -15.5 -68.5 -46 q-30 -30.5 -45.5 -69 q-15.5 -38.5 -15.5 -79.5 q0 -41 15.5 -79.5 q15.5 -38.5 45.5 -69.5 l148 -148 l148 148 l0 0 ZM321 249 q-38 39 -58 88.5 q-20 49.5 -20 102.5 q0 53 20 102.5 q20 49.5 58.5 88.5 q38.5 39 88 59 q49.5 20 102.5 20 q53 0 102.5 -20 q49.5 -20 88 -59 q38.5 -39 58.5 -88.5 q20 -49.5 20 -102.5 q0 -53 -20 -102.5 q-20 -49.5 -58 -88.5 l-191 -191 l-191 191 Z"></path></symbol><symbol id="qunfengxiaoxitishilingdang" viewBox="0 -128 1024 1024"><path d="M945 711.52 q0 -34 -23 -78 q-23 -44 -73 -62 l-1 -347 q-1 -38 -16.5 -64.5 q-15.5 -26.5 -39.5 -52.5 q-14 -16 -31.5 -37.5 q-17.5 -21.5 -39.5 -35 q-22 -13.5 -45 -24.5 q-33 -15 -56 -34 q-14 -13 -25 -27 q-11 -14 -20 -28 q-15 -20 -29 -34.5 q-14 -14.5 -32 -15 q-18 -0.5 -32 13.5 q-14 14 -29 35 q-9 13 -20.5 26.5 q-11.5 13.5 -24.5 25.5 q-24 20 -55 35 q-23 12 -45.5 26.5 q-22.5 14.5 -41.5 38 q-19 23.5 -35 39.5 q-24 24 -39 48.5 q-15 24.5 -16 64.5 l2 346 q-52 14 -75.5 59 q-23.5 45 -23.5 82 l0 23 l866 0 l0 -23 ZM130 687.52 q5 -25 22 -48 q17 -23 49 -25 l24 0 l-2 -390 q0 -26 10.5 -42.5 q10.5 -16.5 31.5 -37.5 q17 -18 38 -43 q14 -18 32.5 -30 q18.5 -12 39.5 -22 q17 -9 33.5 -19 q16.5 -10 32 -24 q15.5 -14 28 -29.5 q12.5 -15.5 22.5 -28.5 l12 -16 q6 -8 10 -12 q5 4 11 12 l12 17 q10 14 23 30.5 q13 16.5 28.5 30.5 q15.5 14 33 24 q17.5 10 34.5 18 q20 10 38 21 q18 11 31 26 q18 22 32 39 q22 24 33.5 42.5 q11.5 18.5 11.5 43.5 l1 388 l22 2 q28 4 45.5 26 q17.5 22 24.5 47 l-764 0 ZM512 895.52 q53 -1 91.5 -33 q38.5 -32 49.5 -84 l5 -28 l-292 0 l5 28 q11 52 49.5 84 q38.5 32 91.5 33 ZM597 797.52 q-13 23 -35 37 q-22 14 -50 14 q-28 0 -50 -14 q-22 -14 -35 -37 l170 0 ZM512 858.52 l0 0 Z"></path></symbol><symbol id="iconset0195" viewBox="0 -128 1024 1024"><path d="M106 423 q30 1 47.5 17.5 q17.5 16.5 17 43.5 q-0.5 27 -19 47 q-18.5 20 -45 20 q-26.5 0 -44.5 -18.5 q-18 -18.5 -18 -45 q0 -26.5 18 -45 q18 -18.5 44 -19.5 ZM106 214 q30 1 47.5 19.5 q17.5 18.5 17 45.5 q-0.5 27 -19 45 q-18.5 18 -45 18 q-26.5 0 -44.5 -18.5 q-18 -18.5 -18 -45 q0 -26.5 18 -45 q18 -18.5 44 -19.5 ZM273 90 q-7 0 -12 -7.5 q-5 -7.5 -5 -13.5 q0 -10 5.5 -16 q5.5 -6 11.5 -6 l666 0 q21 1 22 22 q-1 10 -7 15.5 q-6 5.5 -15 5.5 l-666 0 ZM106 632 q30 0 47.5 17 q17.5 17 17 43.5 q-0.5 26.5 -19 47 q-18.5 20.5 -45 20.5 q-26.5 0 -44.5 -18.5 q-18 -18.5 -18 -45 q0 -26.5 18 -45 q18 -18.5 44 -19.5 ZM943 670 q7 0 13.5 7.5 q6.5 7.5 4.5 13.5 q-1 10 -7 16 q-6 6 -15 6 l-666 0 q-10 0 -15.5 -6 q-5.5 -6 -5.5 -16 q1 -20 21 -21 l670 0 ZM943 256 q7 0 13.5 5.5 q6.5 5.5 4.5 12.5 q-1 10 -7 15.5 q-6 5.5 -15 5.5 l-666 0 q-7 0 -12 -5.5 q-5 -5.5 -5 -11.5 q0 -10 5.5 -16 q5.5 -6 11.5 -6 l670 0 ZM943 465 q7 0 14 5.5 q7 5.5 8 11.5 q-1 21 -22 22 l-665 0 q-21 -1 -22 -22 q0 -7 5.5 -12 q5.5 -5 11.5 -5 l670 0 ZM106 4 q30 1 47.5 19 q17.5 18 17 45 q-0.5 27 -19 45 q-18.5 18 -45 18 q-26.5 0 -44.5 -18.5 q-18 -18.5 -18 -44.5 q0 -26 18 -44.5 q18 -18.5 44 -19.5 Z"></path></symbol><symbol id="caidan" viewBox="0 -128 1024 1024"><path d="M931 132 q12 0 20 -8 q8 -8 8 -20 q0 -12 -8 -20 q-8 -8 -20 -8 l-839 0 q-12 0 -20 8 q-8 8 -8 20 q0 12 8 20 q8 8 20 8 l839 0 ZM92 132 l0 0 ZM931 412 q12 0 20 -8 q8 -8 8 -20 q0 -12 -8 -20 q-8 -8 -20 -8 l-839 0 q-12 0 -20 8 q-8 8 -8 20 q0 12 8 20 q8 8 20 8 l839 0 ZM92 412 l0 0 ZM931 692 q12 0 20 -8 q8 -8 8 -20 q0 -12 -8 -20 q-8 -8 -20 -8 l-839 0 q-12 0 -20 8 q-8 8 -8 20 q0 12 8 20 q8 8 20 8 l839 0 ZM92 692 l0 0 Z"></path></symbol><symbol id="caidan1" viewBox="0 -128 1024 1024"><path d="M896 0 q14 0 23 9 q9 9 9 23 q0 14 -9 23 q-9 9 -23 9 l-768 0 q-14 0 -23 -9 q-9 -9 -9 -23 q0 -14 9 -23 q9 -9 23 -9 l768 0 ZM896 352 q14 0 23 9 q9 9 9 23 q0 14 -9 23 q-9 9 -23 9 l-768 0 q-14 0 -23 -9 q-9 -9 -9 -23 q0 -14 9 -23 q9 -9 23 -9 l768 0 ZM896 704 q14 0 23 9 q9 9 9 23 q0 14 -9 23 q-9 9 -23 9 l-768 0 q-14 0 -23 -9 q-9 -9 -9 -23 q0 -14 9 -23 q9 -9 23 -9 l768 0 Z"></path></symbol></defs></svg>